<svg width="28" height="28" fill="none" xmlns="http://www.w3.org/2000/svg"><path d="M19.303 23.713l-1.139-4.222c-.228-.839-1.12-1.33-1.99-1.093l-2.126.579a45.751 45.751 0 0 1-.181-.302c-.581-.962-1.376-2.28-1.897-4.216-.523-1.94-.5-3.482-.483-4.61l.005-.343 1.425-.387.702-.192c.871-.237 1.395-1.114 1.169-1.953L13.649 2.75c-.226-.839-1.12-1.33-1.99-1.093l-1.193.328.01.033c-.44.178-.865.43-1.254.743-.365.3-.665.614-.917.957-2.04 2.736-2.24 6.192-.694 11.923 2.137 7.923 6.407 9.867 6.592 9.948.407.173.824.291 1.278.36.488.072.981.074 1.45.006l.008.024 1.195-.312c.87-.238 1.394-1.114 1.17-1.955z" fill="#fff"/></svg>