<svg width="65" height="50" viewBox="0 0 65 50" fill="none" xmlns="http://www.w3.org/2000/svg">
<rect x="-1" y="1" width="63" height="48" rx="2" transform="matrix(-1 0 0 1 63 0)" fill="white" stroke="#505050" stroke-width="2"/>
<path d="M22.6464 25.3536C22.4512 25.1583 22.4512 24.8417 22.6464 24.6464L25.8284 21.4645C26.0237 21.2692 26.3403 21.2692 26.5355 21.4645C26.7308 21.6597 26.7308 21.9763 26.5355 22.1716L23.7071 25L26.5355 27.8284C26.7308 28.0237 26.7308 28.3403 26.5355 28.5355C26.3403 28.7308 26.0237 28.7308 25.8284 28.5355L22.6464 25.3536ZM42 25.5L23 25.5L23 24.5L42 24.5L42 25.5Z" fill="#505050"/>
</svg>
