<svg width="32" height="32" viewBox="0 0 32 32" fill="none" xmlns="http://www.w3.org/2000/svg">
<circle cx="16" cy="16" r="16" fill="#F17E01"/>
<path d="M16.0001 25.3332C10.8453 25.3332 6.66675 21.1546 6.66675 15.9998C6.66675 10.845 10.8453 6.6665 16.0001 6.6665C21.1549 6.6665 25.3334 10.845 25.3334 15.9998C25.3334 21.1546 21.1549 25.3332 16.0001 25.3332ZM16.0001 23.4665C17.9804 23.4665 19.8795 22.6798 21.2798 21.2796C22.6801 19.8793 23.4667 17.9801 23.4667 15.9998C23.4667 14.0196 22.6801 12.1204 21.2798 10.7201C19.8795 9.31983 17.9804 8.53317 16.0001 8.53317C14.0198 8.53317 12.1206 9.31983 10.7204 10.7201C9.32008 12.1204 8.53341 14.0196 8.53341 15.9998C8.53341 17.9801 9.32008 19.8793 10.7204 21.2796C12.1206 22.6798 14.0198 23.4665 16.0001 23.4665ZM16.9334 15.9998H20.6667V17.8665H15.0667V11.3332H16.9334V15.9998Z" fill="white"/>
</svg>
