<svg width="37" height="37" viewBox="0 0 37 37" fill="none" xmlns="http://www.w3.org/2000/svg">
<path d="M0 18.5C0 8.28276 8.28276 0 18.5 0C28.7172 0 37 8.28276 37 18.5C37 28.7172 28.7172 37 18.5 37C8.28276 37 0 28.7172 0 18.5Z" fill="url(#paint0_linear)"/>
<path d="M22.5504 8.47925H14.4498C11.1576 8.47925 8.47925 11.1576 8.47925 14.4498V22.5504C8.47925 25.8426 11.1576 28.5209 14.4498 28.5209H22.5504C25.8426 28.5209 28.5209 25.8426 28.5209 22.5504V14.4498C28.5209 11.1576 25.8425 8.47925 22.5504 8.47925ZM26.5047 22.5504C26.5047 24.7343 24.7343 26.5047 22.5504 26.5047H14.4498C12.2659 26.5047 10.4954 24.7343 10.4954 22.5504V14.4498C10.4954 12.2658 12.2659 10.4954 14.4498 10.4954H22.5504C24.7343 10.4954 26.5047 12.2658 26.5047 14.4498V22.5504Z" fill="white"/>
<path d="M18.5001 13.3164C15.642 13.3164 13.3167 15.6417 13.3167 18.4999C13.3167 21.358 15.642 23.6834 18.5001 23.6834C21.3583 23.6834 23.6836 21.358 23.6836 18.4999C23.6836 15.6417 21.3583 13.3164 18.5001 13.3164ZM18.5001 21.6672C16.7509 21.6672 15.3328 20.2492 15.3328 18.4999C15.3328 16.7506 16.7509 15.3326 18.5001 15.3326C20.2494 15.3326 21.6674 16.7506 21.6674 18.4999C21.6674 20.2491 20.2494 21.6672 18.5001 21.6672Z" fill="white"/>
<path d="M23.6935 14.5977C24.3795 14.5977 24.9356 14.0416 24.9356 13.3556C24.9356 12.6696 24.3795 12.1135 23.6935 12.1135C23.0075 12.1135 22.4514 12.6696 22.4514 13.3556C22.4514 14.0416 23.0075 14.5977 23.6935 14.5977Z" fill="white"/>
<defs>
<linearGradient id="paint0_linear" x1="18.5" y1="36.8923" x2="18.5" y2="0.287385" gradientUnits="userSpaceOnUse">
<stop offset="0" stop-color="#E09B3D"/>
<stop offset="0.3" stop-color="#C74C4D"/>
<stop offset="0.6" stop-color="#C21975"/>
<stop offset="1" stop-color="#7024C4"/>
</linearGradient>
</defs>
</svg>
