<svg width="82" height="82" viewBox="0 0 82 82" fill="none" xmlns="http://www.w3.org/2000/svg">
<g clip-path="url(#clip0)">
<path d="M29.6744 39.776C29.0094 39.776 28.4707 40.3153 28.4707 40.9803V43.9389C28.4707 44.6039 29.0094 45.1432 29.6744 45.1432C30.3394 45.1432 30.8787 44.6039 30.8787 43.9389V40.9803C30.8787 40.3153 30.3394 39.776 29.6744 39.776Z" fill="#F17E01"/>
<path d="M52.6558 39.776C51.9908 39.776 51.4521 40.3153 51.4521 40.9803V43.9389C51.4521 44.6039 51.9908 45.1432 52.6558 45.1432C53.3209 45.1432 53.8602 44.6039 53.8602 43.9389V40.9803C53.8602 40.3153 53.3209 39.776 52.6558 39.776Z" fill="#F17E01"/>
<path d="M44.6548 51.9837C44.1293 51.5764 43.3723 51.6734 42.9656 52.1995C42.5402 52.7495 41.8983 53.0648 41.2045 53.0648C40.5107 53.0648 39.8688 52.7495 39.4434 52.1995C39.0368 51.674 38.2804 51.5777 37.7542 51.9843C37.2287 52.391 37.1324 53.1473 37.539 53.6735C38.4243 54.8171 39.76 55.4728 41.2045 55.4728C42.6497 55.4728 43.986 54.8165 44.8706 53.6722C45.2773 53.1467 45.1809 52.3904 44.6548 51.9837Z" fill="#F17E01"/>
<path d="M76.2284 37.6809C75.5521 34.6979 73.116 32.5377 70.1525 32.1823C70.1474 31.9853 70.1418 31.7732 70.1362 31.5505C70.0511 28.2222 70.0161 24.8808 69.2115 21.6107C68.7148 19.5931 67.9878 17.6186 67.0625 15.7493C67.2246 13.1874 67.1357 10.1988 66.3675 7.41357C65.4816 4.19977 63.509 1.98071 60.8089 1.16428C60.5824 1.09672 56.9588 0.081968 52.3706 2.20531C49.8037 1.16491 47.0603 0.471101 44.22 0.169554C39.2439 -0.35784 34.3034 0.355988 29.8615 2.15901C25.3195 0.0951058 21.7441 1.09797 21.5158 1.16554C19.8454 1.67103 18.4127 2.74897 17.3736 4.28423C17.0013 4.83478 17.1452 5.58364 17.6964 5.95588C18.2469 6.32875 18.9952 6.18486 19.368 5.63369C20.1038 4.54637 21.061 3.81877 22.2002 3.47406C22.473 3.39711 28.8142 1.7117 35.0835 9.38989C34.7957 9.78152 34.558 10.2119 34.3778 10.6705C33.2204 10.0599 31.5551 9.30918 29.879 8.992C29.2253 8.86875 28.5953 9.29792 28.472 9.95107C28.3481 10.6048 28.7779 11.2348 29.4311 11.3581C31.2066 11.694 33.0565 12.6675 33.9856 13.2074V14.8177C33.0565 15.3576 31.2066 16.3311 29.4311 16.6671C28.7779 16.7903 28.3481 17.4203 28.472 18.0741C28.5809 18.6515 29.0864 19.0544 29.6538 19.0544C29.7276 19.0544 29.8033 19.0475 29.879 19.0331C31.5194 18.7228 33.1479 17.9971 34.3021 17.394C34.4711 17.8789 34.7038 18.3337 34.9909 18.7491C28.7523 26.2984 22.4717 24.6274 22.2127 24.5542C19.146 23.627 18.2294 20.2787 17.9567 18.365C17.5444 15.4796 17.4981 12.7044 17.8221 10.3383C17.9129 9.67955 17.4518 9.0727 16.793 8.98199C16.1342 8.89252 15.5268 9.35235 15.4367 10.0111C15.162 12.0156 15.1595 14.0182 15.2696 15.7674C14.345 17.6293 13.6193 19.5912 13.12 21.6088C12.6958 23.3249 12.4562 26.5136 12.3117 29.3283C12.3098 29.3283 12.308 29.3289 12.3067 29.3295C12.2304 30.1816 12.1904 32.0929 12.1904 32.1817C8.66626 32.6065 5.9248 35.6207 5.9248 39.2674C5.9248 42.9135 8.66626 45.9278 12.1904 46.3544C12.1904 52.015 14.3794 57.3459 18.3539 61.3648C19.9955 63.0252 21.8636 64.3809 23.8869 65.4044C20.0318 68.0852 16.9519 71.6969 14.9393 75.9273C14.2549 77.3669 13.6518 78.879 13.1482 80.4224C13.0281 80.789 13.0912 81.1906 13.3177 81.5028C13.5442 81.815 13.907 82.0002 14.2924 82.0002H68.0372C68.4226 82.0002 68.7855 81.815 69.012 81.5028C69.2384 81.1906 69.3016 80.789 69.1815 80.4224C68.7223 79.016 68.1799 77.6321 67.5693 76.3096C65.5123 71.8546 62.3129 68.1334 58.414 65.4195C60.4491 64.3941 62.3272 63.0334 63.977 61.3648C67.9503 57.3459 70.1387 52.015 70.1387 46.3544V46.3513C71.8147 46.1474 73.3825 45.3497 74.5343 44.0903C74.9828 43.5998 74.9491 42.8378 74.4579 42.3893C73.9675 41.9407 73.2055 41.9745 72.7569 42.465C72.0612 43.2257 71.1372 43.7325 70.1399 43.9183V34.6135C71.973 34.9457 73.4532 36.3327 73.8792 38.212C74.0263 38.8608 74.6713 39.2674 75.3194 39.1204C75.9688 38.974 76.3755 38.329 76.2284 37.6809ZM12.1904 43.9202C9.99944 43.5154 8.33343 41.5835 8.33343 39.2681C8.33343 36.952 9.99882 35.0201 12.1904 34.6154V43.9202ZM60.1176 3.47093C62.6469 4.23606 63.6648 6.67096 64.0464 8.0542C65.0268 11.6089 64.7659 15.6235 64.3743 18.3656C64.1015 20.2775 63.1862 23.622 60.1263 24.5523C59.7985 24.6437 53.5236 26.269 47.3024 18.7041C47.5808 18.293 47.8061 17.8426 47.97 17.364C49.1267 17.9727 50.7834 18.7178 52.4513 19.0338C52.5276 19.0475 52.6027 19.0544 52.6771 19.0544C53.2439 19.0544 53.7494 18.6521 53.8583 18.0741C53.9821 17.4209 53.5523 16.7909 52.8992 16.6671C51.0787 16.323 49.1793 15.3076 48.2753 14.7777V13.2474C49.1762 12.7182 51.0705 11.7047 52.8992 11.3587C53.5523 11.2355 53.9821 10.6048 53.8583 9.95169C53.735 9.29792 53.1057 8.86875 52.4513 8.99262C50.7471 9.31481 49.0548 10.0856 47.8955 10.7012C47.7204 10.2489 47.4895 9.82407 47.2099 9.43556C53.4917 1.70544 59.8567 3.39711 60.1176 3.47093ZM32.5836 3.72681C36.174 2.56629 40.0572 2.15026 43.966 2.56441C45.9286 2.77274 47.8386 3.18753 49.6673 3.78374C48.274 4.77534 46.8395 6.08976 45.4212 7.81959C44.5904 7.34225 43.6294 7.0676 42.6041 7.0676H39.6568C38.652 7.0676 37.708 7.33161 36.8884 7.79206C35.4495 6.04221 33.995 4.72029 32.5836 3.72681ZM36.3398 15.0548C36.3235 14.1652 36.3066 13.1761 36.428 12.2921C36.6469 10.7043 38.0095 9.4756 39.6568 9.4756H42.6041C44.0248 9.4756 45.2123 10.4322 45.699 11.7372C46.1238 12.8739 45.8673 14.2597 45.8673 15.4627V15.5309C45.8673 17.3296 44.4033 18.7935 42.6041 18.7935C42.6041 18.7935 39.658 18.7935 39.6568 18.7935C38.7177 18.7935 37.8112 18.3775 37.1956 17.6687C36.5206 16.891 36.3567 15.9883 36.3398 15.0548ZM65.3834 77.3199C65.725 78.0594 66.0434 78.8195 66.3368 79.5928H15.9941C16.3338 78.695 16.7092 77.8154 17.1146 76.9627C19.1241 72.7392 22.2997 69.1882 26.2986 66.6932C26.3862 66.6388 26.4757 66.5875 26.5639 66.5343C28.4852 67.1912 30.509 67.5691 32.5854 67.651C32.6499 67.8087 32.7168 67.9657 32.7875 68.119C34.2045 71.1876 37.3151 73.1708 40.7116 73.1708H41.62C44.9733 73.1708 48.0613 71.2346 49.4871 68.2372C49.5784 68.0464 49.6635 67.85 49.7448 67.651C51.8094 67.5691 53.822 67.1962 55.7339 66.5456C59.8792 69.0649 63.2838 72.7736 65.3834 77.3199ZM35.27 67.6723H47.0635C45.9505 69.5654 43.8691 70.7622 41.62 70.7622H40.7116C38.4662 70.7622 36.3936 69.5679 35.27 67.6723ZM67.7319 37.5695L67.7307 46.3551C67.7307 51.3781 65.7894 56.1072 62.2647 59.6725C58.7425 63.2354 54.0497 65.2199 49.0517 65.2618C49.0417 65.2624 49.0323 65.2624 49.0229 65.2631C48.9778 65.2643 48.9328 65.2643 48.8878 65.2643H33.4413C33.3981 65.2643 33.3531 65.2643 33.3099 65.2631C33.2999 65.2624 33.2899 65.2624 33.2799 65.2618C28.2818 65.2199 23.5897 63.2348 20.0662 59.6725C16.5403 56.1072 14.5983 51.3775 14.5983 46.3551V37.552C15.7363 38.2884 17.0871 38.7063 18.4315 38.7063C20.1482 38.7063 21.7598 38.0406 22.9666 36.8557C24.1722 38.0406 25.7837 38.7063 27.5011 38.7063C29.219 38.7063 30.8312 38.0406 32.0368 36.8557C33.243 38.0406 34.8546 38.7063 36.5731 38.7063C38.2911 38.7063 39.9033 38.0406 41.1088 36.8557C42.3144 38.0406 43.9266 38.7063 45.6446 38.7063C47.3619 38.7063 48.9735 38.0406 50.179 36.8557C51.3858 38.0406 52.9974 38.7063 54.7147 38.7063C56.4327 38.7063 58.0449 38.0406 59.2505 36.8557C60.456 38.0406 62.0682 38.7063 63.7862 38.7063C65.1813 38.7063 66.5739 38.2608 67.7319 37.4788V37.5695ZM67.3303 34.6291C67.2834 34.6861 67.2352 34.7417 67.1826 34.7993C66.3387 35.7233 65.0374 36.2976 63.7862 36.2976C62.5268 36.2976 61.3575 35.7283 60.578 34.7355C60.2552 34.3238 59.7716 34.088 59.2505 34.088C58.7299 34.088 58.2457 34.3238 57.9229 34.7355C57.144 35.7283 55.9741 36.2976 54.7147 36.2976C53.4566 36.2976 52.2867 35.7283 51.5066 34.7349C51.1831 34.3232 50.6995 34.0873 50.179 34.0873C49.6585 34.088 49.1743 34.3238 48.8515 34.7355C48.0719 35.7283 46.9033 36.2976 45.6446 36.2976C44.3852 36.2976 43.2159 35.7283 42.4364 34.7355C42.1136 34.3238 41.6294 34.088 41.1088 34.088C40.5883 34.088 40.1047 34.3238 39.7813 34.7355C39.0024 35.7283 37.8331 36.2976 36.5731 36.2976C35.3138 36.2976 34.1439 35.7283 33.365 34.7349C33.0415 34.3238 32.5579 34.088 32.0374 34.088C31.5169 34.088 31.0333 34.3238 30.7098 34.7355C29.9303 35.7283 28.7611 36.2976 27.5017 36.2976C26.2429 36.2976 25.0743 35.7283 24.2948 34.7355C23.972 34.3238 23.4884 34.088 22.9672 34.0873C22.4467 34.0873 21.9631 34.3232 21.6403 34.7349C20.8595 35.7283 19.6896 36.2976 18.4315 36.2976C17.2078 36.2976 15.9234 35.7421 15.0801 34.8487C14.5039 34.2381 14.5983 33.361 14.5983 32.584C14.5933 32.5821 14.5883 32.5802 14.5827 32.579C14.6891 29.7024 14.9174 24.3721 15.4579 22.1881C15.5987 21.6194 15.7595 21.057 15.9384 20.5002C16.8287 23.7985 18.7687 26.0294 21.5239 26.8627C21.6359 26.8959 22.5837 27.1605 24.0708 27.1605C26.9787 27.1605 31.9467 26.142 36.7489 20.3976C37.5998 20.9075 38.5945 21.2022 39.6568 21.2022H42.6041C43.6858 21.2022 44.6974 20.8975 45.5582 20.3701C50.3667 26.1395 55.3366 27.1636 58.2501 27.1636C59.7434 27.1636 60.6963 26.8953 60.8089 26.8621C60.8107 26.8615 60.8126 26.8608 60.8145 26.8602C63.5635 26.0288 65.5029 23.7966 66.3931 20.4965C66.572 21.0551 66.7328 21.6188 66.873 22.1862C67.1933 23.4882 67.4097 25.8486 67.5524 27.4108L67.5905 27.8199C67.6475 28.4349 67.6944 30.2711 67.7288 31.6118C67.7538 32.5971 68.0116 33.7996 67.3303 34.6291Z" fill="#F17E01"/>
</g>
<defs>
<clipPath>
<rect width="82" height="82" fill="white"/>
</clipPath>
</defs>
</svg>
