<svg width="75" height="75" viewBox="0 0 75 75" fill="none" xmlns="http://www.w3.org/2000/svg">
<path d="M70.1549 49.6766C70.0206 44.521 66.1255 40.2435 61.2892 39.9375C61.0182 39.9194 60.7521 39.929 60.4835 39.9339V0H4.83838V75H53.2255H60.4835V65.452C62.1638 64.223 63.6408 62.9758 64.9521 61.6657C68.7698 57.8492 70.2771 54.3762 70.1549 49.6766ZM57.7158 64.448L53.2388 67.4891L48.7618 64.448C47.5968 63.6569 46.5081 62.844 45.5271 62.0323L43.986 63.8964C45.0251 64.7565 46.1743 65.6153 47.4021 66.4488L53.2388 70.4129L58.0642 67.1371V72.5806H53.2255H7.25773V2.41935H58.0642V40.3004C56.1638 40.8556 54.4726 42 53.2388 43.5992C53.2255 43.5811 53.2085 43.5665 53.1952 43.5484H53.2255V12.0968H41.0428C40.4537 7.99839 36.9202 4.83871 32.661 4.83871C28.4017 4.83871 24.8682 7.99839 24.2791 12.0968H12.0964V67.7419H33.8706V65.3226H14.5158V14.5161H26.6126V13.3065C26.6126 9.97137 29.3259 7.25806 32.661 7.25806C35.996 7.25806 38.7093 9.97137 38.7093 13.3065V14.5161H50.8061V41.3843C49.1646 40.3403 47.2146 39.8056 45.1896 39.9375C40.3533 40.2435 36.4581 44.521 36.3239 49.6766C36.2743 51.548 36.4993 53.2258 37.0085 54.8056L39.3106 54.0641C38.886 52.748 38.7009 51.3327 38.742 49.7407C38.8448 45.8262 41.7432 42.5806 45.342 42.3532C48.2138 42.173 50.8884 43.7685 52.1452 46.4214L53.2388 48.7282L54.3323 46.4226C55.5904 43.7685 58.2662 42.1681 61.1368 42.3532C64.7355 42.5806 67.6339 45.8262 67.7368 49.7407C67.8577 54.369 66.0275 57.1718 63.2428 59.954C61.6835 61.5109 59.8763 62.9806 57.7158 64.448Z" fill="#F17E01"/>
<path d="M32.661 16.9356C34.6618 16.9356 36.29 15.3073 36.29 13.3065C36.29 11.3057 34.6618 9.67749 32.661 9.67749C30.6602 9.67749 29.032 11.3057 29.032 13.3065C29.032 15.3073 30.6602 16.9356 32.661 16.9356ZM32.661 12.0968C33.3275 12.0968 33.8707 12.6388 33.8707 13.3065C33.8707 13.9743 33.3275 14.5162 32.661 14.5162C31.9945 14.5162 31.4513 13.9743 31.4513 13.3065C31.4513 12.6388 31.9945 12.0968 32.661 12.0968Z" fill="#F17E01"/>
<path d="M47.177 25.4032H18.1448V35.0806H47.177V25.4032ZM44.7577 32.6613H20.5641V27.8226H44.7577V32.6613Z" fill="#F17E01"/>
<path d="M36.2899 39.9193H18.1448V42.3387H36.2899V39.9193Z" fill="#F17E01"/>
<path d="M33.8706 44.7581H18.1448V47.1774H33.8706V44.7581Z" fill="#F17E01"/>
<path d="M33.8706 49.5968H18.1448V52.0162H33.8706V49.5968Z" fill="#F17E01"/>
<path d="M24.1932 54.4355H18.1448V56.8549H24.1932V54.4355Z" fill="#F17E01"/>
</svg>
