<svg width="84" height="84" viewBox="0 0 84 84" fill="none" xmlns="http://www.w3.org/2000/svg">
<g clip-path="url(#clip0)">
<path d="M18.9677 26.8733V26.4194H16.2581V26.8733C16.2581 27.6496 16.2784 28.4259 16.3177 29.1982L19.0246 29.06C18.9881 28.3325 18.9677 27.6049 18.9677 26.8733Z" fill="#F17E01"/>
<path d="M19.2402 31.6843L16.5481 31.9919C17.3231 38.8162 19.7022 45.4861 23.4266 51.278L25.7055 49.8121C22.2045 44.367 19.9704 38.0981 19.2402 31.6843Z" fill="#F17E01"/>
<path d="M49.9406 13.1582C47.594 14.7434 44.8477 15.5807 41.9999 15.5807C39.152 15.5807 36.4071 14.7434 34.0605 13.1596L32.5444 15.4059C35.3408 17.2932 38.61 18.2903 41.9999 18.2903C45.3897 18.2903 48.6589 17.2932 51.4566 15.4045L49.9406 13.1582Z" fill="#F17E01"/>
<path d="M12.1935 52.1613H9.48387C9.48387 57.3896 5.22832 61.6451 0 61.6451V64.3548C5.22832 64.3548 9.48387 68.6104 9.48387 73.8387H12.1935C12.1935 68.6104 16.4491 64.3548 21.6774 64.3548V61.6451C16.4491 61.6451 12.1935 57.3896 12.1935 52.1613ZM10.8387 68.2771C9.67355 66.0145 7.82419 64.1651 5.56161 63C7.82419 61.8348 9.67355 59.9855 10.8387 57.7229C12.0039 59.9855 13.8532 61.8348 16.1158 63C13.8532 64.1651 12.0039 66.0145 10.8387 68.2771Z" fill="#F17E01"/>
<path d="M74.5163 16.9355H71.9218C69.3557 10.5529 63.0747 6.0968 55.9577 6.0968C52.5977 6.0968 49.4382 7.0059 46.8207 8.72383C43.9227 10.6314 40.079 10.6314 37.1796 8.72383C34.5635 7.0059 31.404 6.0968 28.0426 6.0968C18.556 6.0968 10.8389 13.814 10.8389 23.3005V26.8733C10.8389 36.5874 13.6163 46.0388 18.869 54.2098C21.6952 58.6063 23.7708 63.4065 25.0389 68.4763L26.513 74.3753C27.0306 76.4536 28.888 77.9033 31.0287 77.9033C33.3522 77.9033 35.2896 76.2355 35.6324 73.9377L38.6713 53.672C38.922 52.0123 40.3215 50.8065 42.0002 50.8065C43.6788 50.8065 45.0784 52.0123 45.3277 53.672L48.3666 73.9377C48.7107 76.2355 50.6481 77.9033 52.9717 77.9033C55.1123 77.9033 56.9698 76.4536 57.4873 74.3753L58.9628 68.4763C60.2309 63.4051 62.3078 58.6049 65.134 54.2098C68.2217 49.4056 70.4802 44.0404 71.8012 38.472C71.7999 38.5195 71.8066 38.5655 71.8066 38.6129H74.5163C74.5163 33.3846 78.7719 29.1291 84.0002 29.1291V26.4194C78.7719 26.4194 74.5163 22.1638 74.5163 16.9355ZM62.8538 52.7439C59.8664 57.391 57.6743 62.4635 56.3344 67.8205L54.8576 73.7195C54.6422 74.588 53.8658 75.1936 52.9717 75.1936C52.0002 75.1936 51.1914 74.4958 51.0478 73.5353L48.0089 53.2696C47.5591 50.2713 45.0309 48.0968 42.0002 48.0968C38.9694 48.0968 36.4413 50.2713 35.9915 53.2696L32.9526 73.5353C32.8103 74.4958 32.0001 75.1936 31.0287 75.1936C30.1345 75.1936 29.3582 74.588 29.14 73.7195L27.6646 67.8205C26.326 62.4622 24.1325 57.3896 21.1451 52.7439C16.1756 45.0118 13.5485 36.0658 13.5485 26.8733V23.3005C13.5485 15.3084 20.0504 8.80648 28.0426 8.80648C30.8729 8.80648 33.5175 9.56112 35.6907 10.9891C37.5888 12.2369 39.7132 12.871 42.0002 12.871C44.2871 12.871 46.4115 12.2369 48.3083 10.9891C50.4828 9.56112 53.1275 8.80648 55.9577 8.80648C63.1058 8.80648 69.2731 14.1324 70.2892 21.0867L70.3461 21.9687C68.6661 24.6364 65.7017 26.4194 62.3228 26.4194V29.1291C65.5039 29.1291 68.3179 30.7088 70.0386 33.1191C69.124 40.0667 66.642 46.8504 62.8538 52.7439ZM73.1615 33.0513C71.9963 30.7887 70.1469 28.9394 67.8844 27.7742C70.1469 26.6091 71.9963 24.7597 73.1615 22.4971C74.3266 24.7597 76.176 26.6091 78.4386 27.7742C76.176 28.9394 74.3266 30.7887 73.1615 33.0513Z" fill="#F17E01"/>
</g>
<defs>
<clipPath>
<rect width="84" height="84" fill="white"/>
</clipPath>
</defs>
</svg>
