<svg width="32" height="32" viewBox="0 0 32 32" fill="none" xmlns="http://www.w3.org/2000/svg">
<circle cx="16" cy="16" r="16" fill="#F17E01"/>
<path d="M16.0001 24.3064L20.6201 19.6864C21.5337 18.7727 22.1559 17.6086 22.4079 16.3412C22.66 15.0739 22.5306 13.7603 22.0361 12.5665C21.5415 11.3728 20.7041 10.3525 19.6298 9.63459C18.5554 8.91673 17.2922 8.53357 16.0001 8.53357C14.708 8.53357 13.4448 8.91673 12.3704 9.63459C11.2961 10.3525 10.4587 11.3728 9.96415 12.5665C9.46964 13.7603 9.34022 15.0739 9.59226 16.3412C9.84429 17.6086 10.4665 18.7727 11.3801 19.6864L16.0001 24.3064ZM16.0001 26.9459L10.0604 21.0062C8.88562 19.8314 8.08561 18.3347 7.7615 16.7052C7.43739 15.0758 7.60374 13.3868 8.23952 11.8519C8.8753 10.317 9.95195 9.00515 11.3333 8.08215C12.7147 7.15915 14.3387 6.6665 16.0001 6.6665C17.6615 6.6665 19.2855 7.15915 20.6669 8.08215C22.0483 9.00515 23.1249 10.317 23.7607 11.8519C24.3965 13.3868 24.5628 15.0758 24.2387 16.7052C23.9146 18.3347 23.1146 19.8314 21.9398 21.0062L16.0001 26.9459ZM16.0001 16.9331C16.4952 16.9331 16.97 16.7364 17.32 16.3864C17.6701 16.0363 17.8668 15.5615 17.8668 15.0664C17.8668 14.5714 17.6701 14.0966 17.32 13.7465C16.97 13.3964 16.4952 13.1998 16.0001 13.1998C15.505 13.1998 15.0302 13.3964 14.6802 13.7465C14.3301 14.0966 14.1334 14.5714 14.1334 15.0664C14.1334 15.5615 14.3301 16.0363 14.6802 16.3864C15.0302 16.7364 15.505 16.9331 16.0001 16.9331ZM16.0001 18.7998C15.01 18.7998 14.0604 18.4064 13.3602 17.7063C12.6601 17.0062 12.2668 16.0566 12.2668 15.0664C12.2668 14.0763 12.6601 13.1267 13.3602 12.4266C14.0604 11.7264 15.01 11.3331 16.0001 11.3331C16.9902 11.3331 17.9398 11.7264 18.64 12.4266C19.3401 13.1267 19.7334 14.0763 19.7334 15.0664C19.7334 16.0566 19.3401 17.0062 18.64 17.7063C17.9398 18.4064 16.9902 18.7998 16.0001 18.7998Z" fill="white"/>
</svg>
