<svg width="32" height="32" viewBox="0 0 32 32" fill="none" xmlns="http://www.w3.org/2000/svg">
<circle cx="16" cy="16" r="16" fill="#F17E01"/>
<path d="M13.5417 14.7695C14.4175 16.3081 15.6917 17.5822 17.2302 18.458L18.0553 17.3025C18.188 17.1167 18.3842 16.986 18.6067 16.9351C18.8293 16.8842 19.0628 16.9166 19.263 17.0263C20.5831 17.7477 22.0408 18.1815 23.5405 18.2993C23.7746 18.3179 23.993 18.424 24.1523 18.5964C24.3117 18.7689 24.4001 18.9951 24.4001 19.2299V23.3944C24.4001 23.6255 24.3145 23.8484 24.1596 24.0199C24.0048 24.1915 23.7918 24.2995 23.562 24.3231C23.0673 24.3744 22.5689 24.3996 22.0668 24.3996C14.0774 24.3996 7.6001 17.9223 7.6001 9.93294C7.6001 9.43081 7.6253 8.93241 7.67663 8.43774C7.7002 8.20786 7.80822 7.9949 7.97977 7.84007C8.15132 7.68524 8.37421 7.59956 8.6053 7.59961H12.7698C13.0046 7.59958 13.2308 7.68804 13.4033 7.84736C13.5757 8.00668 13.6818 8.22515 13.7004 8.45921C13.8182 9.95888 14.252 11.4166 14.9734 12.7367C15.0831 12.9369 15.1155 13.1704 15.0646 13.393C15.0137 13.6155 14.883 13.8117 14.6972 13.9444L13.5417 14.7695ZM11.1878 14.1563L12.9612 12.8897C12.4579 11.8034 12.1131 10.6505 11.9373 9.46628H9.4761C9.4705 9.62121 9.4677 9.77708 9.4677 9.93294C9.46676 16.8919 15.1078 22.5329 22.0668 22.5329C22.2226 22.5329 22.3785 22.5301 22.5334 22.5236V20.0624C21.3492 19.8866 20.1963 19.5418 19.11 19.0385L17.8434 20.8119C17.3335 20.6137 16.8382 20.3798 16.3613 20.1119L16.3072 20.0811C14.4765 19.0392 12.9605 17.5232 11.9186 15.6925L11.8878 15.6384C11.6199 15.1615 11.386 14.6662 11.1878 14.1563Z" fill="white"/>
</svg>
