<svg width="21" height="21" viewBox="0 0 21 21" fill="none" xmlns="http://www.w3.org/2000/svg">
<path d="M10.5 0C16.299 0 21 4.70103 21 10.5C21 16.299 16.299 21 10.5 21C4.70103 21 0 16.299 0 10.5C0 4.70103 4.70103 0 10.5 0Z" fill="#F17E01"/>
<path d="M13.2974 9.16939C13.2463 8.75451 13.1188 8.42874 12.8924 8.14017C12.5983 7.7686 12.2225 7.54613 11.6661 7.41414C11.3035 7.32616 11.1571 7.33626 11.0259 7.45605C10.9038 7.56827 10.8799 7.79323 10.9733 7.93896C11.0389 8.04471 11.1147 8.08255 11.3253 8.12389C11.6058 8.17552 11.7996 8.2425 11.9759 8.3433C12.3502 8.55943 12.5245 8.89757 12.5431 9.44506C12.5518 9.70209 12.5741 9.7811 12.6638 9.87228C12.8302 10.0389 13.1264 10.0065 13.252 9.80709C13.2981 9.73193 13.3051 9.6992 13.31 9.52468C13.3132 9.41662 13.3085 9.25575 13.2974 9.16939Z" fill="white"/>
<path d="M14.7634 9.63678C14.6895 8.36567 14.1923 7.34301 13.3025 6.6235C12.8012 6.21921 12.1952 5.94117 11.531 5.80599C11.2877 5.75764 10.8397 5.71844 10.7628 5.74084C10.6903 5.76162 10.5878 5.84016 10.542 5.91116C10.4936 5.98816 10.4827 6.1601 10.524 6.25959C10.5906 6.42584 10.7144 6.48455 11.0613 6.51491C11.5959 6.56168 12.1474 6.74954 12.5641 7.02762C13.0398 7.34428 13.4179 7.77736 13.6625 8.28626C13.8739 8.7235 14.0039 9.35363 14.0003 9.91792C13.9991 10.122 14.0307 10.2372 14.1127 10.3215C14.2366 10.4511 14.4172 10.4794 14.5766 10.3934C14.7532 10.3005 14.7945 10.1374 14.7634 9.63678Z" fill="white"/>
<path d="M13.7418 16.8529C13.3827 17.0637 13.0777 17.051 12.3756 16.7948C11.1718 16.3549 10.0113 15.7114 8.89234 14.8662C6.75001 13.2485 5.19066 11.2109 4.1457 8.659M13.7418 16.8529L14.8392 14.5627C14.6117 14.2173 13.3899 13.2558 12.7799 12.9413C12.4315 12.7614 12.1735 12.7014 11.9822 12.7577M13.7418 16.8529C13.8934 16.762 14.2688 16.3749 14.4782 16.0931L13.7418 16.8529ZM4.1457 8.659C4.01214 8.33362 3.99049 8.22821 4.00311 7.97372M4.1457 8.659L3.68315 8.84886C3.68309 8.84873 3.68304 8.8486 3.68298 8.84847M4.1457 8.659L3.68298 8.84847M4.00311 7.97372C4.01756 7.66475 4.11319 7.43029 4.36225 7.09948M4.00311 7.97372L3.50372 7.94895C3.49649 8.09483 3.49709 8.23288 3.53003 8.39146C3.56073 8.53926 3.61543 8.68387 3.68298 8.84847M4.00311 7.97372L3.50366 7.95036C3.52412 7.51298 3.67268 7.1841 3.9628 6.79874L3.96338 6.79798L3.96338 6.79798C4.13574 6.56995 4.40066 6.31862 4.65567 6.11243C4.90401 5.91164 5.20068 5.70665 5.44748 5.61035L5.44775 5.61024C5.90742 5.4312 6.40198 5.45836 6.79952 5.78368L6.80381 5.78719L6.80379 5.78721C6.87302 5.84515 6.96484 5.94875 7.03963 6.03524C7.12648 6.13569 7.23046 6.26076 7.33706 6.39235C7.54822 6.653 7.78246 6.95502 7.92203 7.15554L7.92282 7.15668L7.92282 7.15668C8.12482 7.44863 8.40667 7.90431 8.52296 8.13036L8.52433 8.13303L8.52432 8.13303C8.71259 8.50443 8.75615 8.90514 8.62239 9.30079L8.62215 9.3015C8.57482 9.44082 8.51535 9.5738 8.38805 9.71824C8.2849 9.83526 8.14256 9.95235 7.96633 10.0933C7.87366 10.1687 7.78636 10.2402 7.72061 10.2948C7.70002 10.3119 7.68206 10.3269 7.667 10.3395M4.36225 7.09948C4.6384 6.73414 5.28455 6.21063 5.62922 6.07615M4.36225 7.09948L4.36224 7.09947L4.36225 7.09948ZM5.62922 6.07615C5.95592 5.9489 6.2519 5.98162 6.48288 6.17063C6.61105 6.27792 7.25358 7.0704 7.51165 7.44117C7.70658 7.72291 7.97547 8.15913 8.07835 8.3591C8.21194 8.62263 8.23537 8.88437 8.14873 9.14066C8.08018 9.34243 8.02062 9.40967 7.6524 9.70413C7.46474 9.85681 7.29507 9.99678 7.2788 10.0149M5.62922 6.07615L5.62922 6.07614L5.62922 6.07615ZM7.2788 10.0149C7.26261 10.0349 7.22649 10.0985 7.1994 10.1585C7.08932 10.3966 7.15611 10.722 7.41959 11.2546C7.62356 11.669 7.88163 12.0362 8.26063 12.4524C8.58191 12.8068 9.00063 13.1649 9.32728 13.3648C9.74782 13.623 10.2947 13.8193 10.5961 13.8211M7.2788 10.0149L7.6674 10.3296C7.67228 10.3235 7.676 10.3186 7.67842 10.3153L7.68396 10.3075C7.68624 10.3042 7.6873 10.3025 7.68704 10.3029C7.68647 10.3038 7.68396 10.3079 7.67988 10.3153C7.67569 10.3228 7.67127 10.3311 7.667 10.3395M7.2788 10.0149L7.65122 10.3486C7.64806 10.3521 7.64496 10.3554 7.64205 10.3585C7.64099 10.3596 7.63996 10.3607 7.63896 10.3617C7.63307 10.3678 7.62812 10.3725 7.62508 10.3754M10.5961 13.8211C10.726 13.8211 10.9101 13.7684 11.004 13.7029C11.0419 13.6775 11.1844 13.5157 11.3234 13.343M10.5961 13.8211V13.3211C10.5959 13.3211 10.5961 13.3211 10.5966 13.3211M10.5961 13.8211L10.5991 13.3211C10.5983 13.3211 10.5975 13.3211 10.5966 13.3211M11.3234 13.343C11.6681 12.9122 11.7764 12.8159 11.9822 12.7577M11.3234 13.343L10.933 13.0306C10.9331 13.0305 10.9333 13.0303 10.9334 13.0301M11.3234 13.343L10.9339 13.0296C10.9337 13.0298 10.9336 13.0299 10.9334 13.0301M11.9822 12.7577L11.841 12.2781C11.8419 12.2778 11.8429 12.2775 11.8438 12.2773M11.9822 12.7577L11.8461 12.2766C11.8453 12.2768 11.8445 12.277 11.8438 12.2773M13.0093 12.4971C13.3575 12.6766 13.8452 13.0192 14.2623 13.3475C14.4746 13.5146 14.678 13.6855 14.8458 13.8399C15.0022 13.9839 15.1628 14.1449 15.2568 14.2876L15.2603 14.293L15.2603 14.2931C15.311 14.3723 15.3811 14.5049 15.4194 14.6157C15.4598 14.7298 15.4828 14.8556 15.4931 14.9664C15.5031 15.074 15.5053 15.2106 15.4781 15.3386C15.4441 15.5008 15.373 15.6518 15.2797 15.8087C15.1865 15.9654 15.0555 16.1532 14.8803 16.3902L14.8795 16.3914C14.7583 16.5544 14.5968 16.7385 14.4474 16.8926C14.3121 17.0322 14.1385 17.198 13.999 17.2817L13.9949 17.2841L13.9949 17.2841C13.7453 17.4306 13.4851 17.5121 13.1661 17.4985C12.8759 17.4862 12.5635 17.3956 12.2042 17.2644L12.204 17.2644C10.9492 16.8059 9.7455 16.1372 8.59098 15.2652C6.37518 13.592 4.76106 11.4813 3.68298 8.84847M13.0093 12.4971L7.62496 10.3755L7.62508 10.3754M13.0093 12.4971C12.6448 12.3088 12.2332 12.1639 11.8438 12.2773M13.0093 12.4971L7.62508 10.3754M7.667 10.3395C7.65823 10.3469 7.65045 10.3535 7.64371 10.3592C7.64333 10.3596 7.64294 10.3599 7.64256 10.3602L7.6402 10.3623L7.62508 10.3754M7.667 10.3395C7.66273 10.3479 7.65862 10.3565 7.65505 10.3644L7.65327 10.3683L7.65325 10.3683C7.65294 10.369 7.65022 10.3743 7.64907 10.3905C7.64779 10.4087 7.64844 10.4423 7.65952 10.4972C7.68278 10.6124 7.74349 10.7817 7.86774 11.0328L7.8682 11.0338C8.0474 11.3979 8.27614 11.7268 8.63033 12.1157L8.6311 12.1166C8.92791 12.4441 9.31081 12.7685 9.5883 12.9384L9.58884 12.9387C9.76768 13.0485 9.97822 13.1476 10.1755 13.2185C10.3807 13.2923 10.5288 13.32 10.5966 13.3211M10.5966 13.3211C10.5969 13.3211 10.5972 13.3211 10.5977 13.321C10.5988 13.321 10.6005 13.3209 10.6028 13.3207C10.6076 13.3202 10.614 13.3195 10.6218 13.3182C10.6379 13.3156 10.6563 13.3115 10.6749 13.3062C10.6874 13.3026 10.6983 13.2988 10.7073 13.2954M10.7073 13.2954C10.7015 13.3016 10.6964 13.307 10.692 13.3115C10.6862 13.3175 10.6836 13.32 10.6836 13.32L10.6838 13.3198C10.6844 13.3192 10.6876 13.3163 10.6928 13.3119C10.6966 13.3088 10.7053 13.3017 10.718 13.2928C10.7186 13.2924 10.7192 13.292 10.7198 13.2915C10.7222 13.2899 10.7242 13.2887 10.7254 13.2879C10.7268 13.2871 10.7275 13.2867 10.7273 13.2868C10.7271 13.2869 10.7265 13.2872 10.7254 13.2878C10.7253 13.2878 10.7252 13.2879 10.725 13.2879C10.7251 13.2879 10.7252 13.2878 10.7253 13.2877L10.7253 13.2877L10.7246 13.2881C10.7233 13.2888 10.7216 13.2896 10.7193 13.2906C10.7158 13.2921 10.7118 13.2937 10.7073 13.2954ZM10.7073 13.2954C10.7192 13.2827 10.734 13.2665 10.7515 13.2467C10.803 13.1885 10.8681 13.1113 10.9334 13.0301M10.9334 13.0301C11.1028 12.8185 11.2407 12.6543 11.3728 12.5369C11.5279 12.399 11.674 12.3255 11.8438 12.2773" stroke="white"/>
<path d="M16.2556 9.92894C16.2291 9.20991 16.108 8.62016 15.8556 7.96264C15.6064 7.31584 15.3542 6.89379 14.8778 6.32294C14.4275 5.78766 14.0777 5.48206 13.5229 5.14186C12.749 4.66788 11.807 4.35421 10.7514 4.2223C10.3914 4.1762 10.31 4.17949 10.1996 4.25318C9.98553 4.39277 9.98837 4.74098 10.2031 4.87849C10.2741 4.92224 10.3372 4.93816 10.6252 4.97583C11.0672 5.03538 11.3514 5.09146 11.6887 5.18347C13.0113 5.54502 14.0283 6.284 14.7083 7.38103C15.2773 8.29541 15.5135 9.20983 15.48 10.3777C15.4683 10.7726 15.4768 10.8421 15.5371 10.9369C15.6527 11.1137 15.9575 11.1487 16.1139 11.002C16.2112 10.9126 16.2295 10.8454 16.2487 10.5075C16.2579 10.3312 16.2598 10.071 16.2556 9.92894Z" fill="white"/>
</svg>
