<svg width="21" height="21" viewBox="0 0 21 21" fill="none" xmlns="http://www.w3.org/2000/svg">
<path d="M10.5 21C16.299 21 21 16.299 21 10.5C21 4.70103 16.299 0 10.5 0C4.70103 0 0 4.70103 0 10.5C0 16.299 4.70103 21 10.5 21Z" fill="#F17E01"/>
<path fill-rule="evenodd" clip-rule="evenodd" d="M10.8462 16.3414H10.8436C9.7986 16.341 8.77184 16.0788 7.85987 15.5814L4.55005 16.4496L5.43581 13.2142C4.88942 12.2674 4.60194 11.1932 4.60237 10.0928C4.60377 6.65033 7.40465 3.84961 10.8461 3.84961C12.5163 3.85033 14.084 4.50054 15.2628 5.68074C16.4416 6.86086 17.0904 8.42951 17.0897 10.0978C17.0884 13.5395 14.2886 16.34 10.8462 16.3414ZM8.01326 14.451L8.20274 14.5635C8.99951 15.0363 9.91284 15.2865 10.8441 15.2869H10.8462C13.7064 15.2869 16.0344 12.9589 16.0355 10.0974C16.0361 8.71078 15.4968 7.40694 14.517 6.42603C13.5373 5.44511 12.2343 4.90466 10.8482 4.90418C7.98569 4.90418 5.65771 7.23199 5.65657 10.0932C5.65618 11.0738 5.93054 12.0287 6.44998 12.855L6.5734 13.0513L6.04914 14.9663L8.01326 14.451ZM13.778 11.442C13.8868 11.4946 13.9603 11.5301 13.9916 11.5825C14.0306 11.6475 14.0306 11.9599 13.9007 12.3244C13.7706 12.6888 13.1474 13.0213 12.8476 13.0661C12.5789 13.1063 12.2387 13.1231 11.865 13.0043C11.6384 12.9324 11.3479 12.8365 10.9757 12.6757C9.51314 12.0442 8.52474 10.6266 8.33792 10.3588C8.32484 10.34 8.3157 10.3269 8.31058 10.32L8.30936 10.3184C8.2268 10.2082 7.67358 9.47011 7.67358 8.70619C7.67358 7.98759 8.02655 7.61095 8.18904 7.43757C8.2002 7.42567 8.21044 7.41473 8.21958 7.40476C8.3626 7.24857 8.5316 7.2095 8.6356 7.2095C8.73959 7.2095 8.84372 7.21046 8.93463 7.21501C8.94583 7.21558 8.95751 7.21554 8.96954 7.21545C9.06045 7.21493 9.17381 7.21427 9.28564 7.48285C9.32864 7.58619 9.3916 7.73944 9.45797 7.90106C9.59219 8.22787 9.74055 8.58894 9.76662 8.64122C9.80565 8.71931 9.83164 8.81036 9.77962 8.91453C9.77183 8.93014 9.76461 8.94489 9.7577 8.95898C9.71863 9.03869 9.68993 9.09736 9.62361 9.17475C9.59757 9.2052 9.57062 9.23801 9.54367 9.27083C9.48999 9.33619 9.43636 9.40155 9.38963 9.4481C9.31149 9.52589 9.23021 9.61028 9.32121 9.76647C9.4122 9.92266 9.72532 10.4335 10.1891 10.8472C10.6876 11.2919 11.1209 11.4798 11.3406 11.5751C11.3834 11.5937 11.4182 11.6088 11.4437 11.6215C11.5996 11.6997 11.6906 11.6866 11.7817 11.5825C11.8727 11.4784 12.1716 11.1269 12.2756 10.9708C12.3796 10.8146 12.4836 10.8407 12.6266 10.8927C12.7697 10.9448 13.5366 11.3222 13.6927 11.4002C13.7231 11.4155 13.7516 11.4293 13.778 11.442Z" fill="#FDFDFD"/>
</svg>
